<svg preserveAspectRatio="none" overflow="visible" style="display: block;" width="157.107" height="156.043" viewBox="0 0 157.107 156.043" fill="none" xmlns="http://www.w3.org/2000/svg">
<g id="logo">
<path id="logoBug" d="M68.7725 73.1272L42.0285 46.3829L34.387 99.8734L3.82098 76.9507M68.7725 73.1272L68.7737 46.3829M68.7725 73.1272L68.7725 92.2319L98.1644 83.0755M98.1644 83.0755C109.348 63.7054 109.437 63.6691 118.851 46.3302L153.287 65.4433L98.1644 83.0755ZM98.1644 83.0755C96.5627 85.8497 86.8885 102.633 85.0831 105.76" stroke="white" stroke-width="7.6415" stroke-linecap="round" stroke-linejoin="round"/>
<g id="highlight">
<path id="Vector 21" d="M4.8933 131.156L4.8933 155.156" stroke="white" stroke-width="1.77225" stroke-linecap="round"/>
<path id="Vector 22" d="M19.5144 131.156L19.5144 155.156" stroke="white" stroke-width="1.77225" stroke-linecap="round"/>
<path id="Vector 23" d="M34.071 131.156L34.071 155.156" stroke="white" stroke-width="1.77225" stroke-linecap="round"/>
<path id="Vector 35" d="M57.6042 131.156L47.9005 155.156" stroke="white" stroke-width="1.77225" stroke-linecap="round"/>
<path id="Vector 33" d="M151.04 131.156L151.04 155.156" stroke="white" stroke-width="1.77225" stroke-linecap="round"/>
<path id="Vector 36" d="M124.185 134.751L137.177 155.156" stroke="white" stroke-width="1.77225" stroke-linecap="round"/>
<path id="Vector 31" d="M108.969 132.279L118.605 155.156" stroke="white" stroke-width="1.77225" stroke-linecap="round"/>
<path id="Vector 25" d="M84.4642 133.954L65.1847 155.156" stroke="white" stroke-width="1.77225" stroke-linecap="round"/>
<path id="Vector 30" d="M97.4289 131.156L97.4289 155.156" stroke="white" stroke-width="1.77225" stroke-linecap="round"/>
</g>
</g>
</svg>
